<?xml version="1.0" encoding="utf-8"?>

<!DOCTYPE svg PUBLIC "-//W3C//DTD SVG 1.1//EN" "http://www.w3.org/Graphics/SVG/1.1/DTD/svg11.dtd">
<!-- Uploaded to: SVG Repo, www.svgrepo.com, Generator: SVG Repo Mixer Tools -->
<svg fill="#000000" version="1.1" id="Layer_1" xmlns="http://www.w3.org/2000/svg" xmlns:xlink="http://www.w3.org/1999/xlink" 
	 width="800px" height="800px" viewBox="0 0 72 72" enable-background="new 0 0 72 72" xml:space="preserve">
<g>
	<g>
		<path d="M67.5,27.568c0,3.828-3.104,6.932-6.932,6.932H10.432c-3.828,0-6.932-3.104-6.932-6.932V10.432
			C3.5,6.604,6.604,3.5,10.432,3.5h50.137c3.828,0,6.932,3.104,6.932,6.932V27.568z M63.5,10.432c0-1.619-1.313-2.932-2.932-2.932
			H10.432C8.813,7.5,7.5,8.813,7.5,10.432v17.137c0,1.619,1.313,2.932,2.932,2.932h50.137c1.619,0,2.932-1.313,2.932-2.932V10.432z"
			/>
	</g>
	<g>
		<g>
			<path d="M11.5,19.5c-0.553,0-1-0.447-1-1v-1.802c0-2.556,1.246-5.198,3.96-5.198h6.664c0.553,0,1,0.447,1,1s-0.447,1-1,1H14.46
				c-1.462,0-1.96,1.626-1.96,3.198V18.5C12.5,19.053,12.052,19.5,11.5,19.5z"/>
		</g>
		<g>
			<path d="M10.694,22.93c-0.26,0-0.521-0.11-0.71-0.29c-0.19-0.189-0.29-0.45-0.29-0.71s0.1-0.52,0.29-0.71
				c0.38-0.38,1.04-0.37,1.41,0c0.189,0.19,0.3,0.45,0.3,0.71s-0.11,0.521-0.29,0.7C11.204,22.819,10.954,22.93,10.694,22.93z"/>
		</g>
	</g>
	<g>
		<path d="M46.5,61.568c0,3.828-3.104,6.932-6.932,6.932H10.432c-3.828,0-6.932-3.104-6.932-6.932V44.432
			c0-3.828,3.104-6.932,6.932-6.932h29.137c3.828,0,6.932,3.104,6.932,6.932V61.568z M42.5,44.432c0-1.619-1.313-2.932-2.932-2.932
			H10.432c-1.619,0-2.932,1.313-2.932,2.932v17.137c0,1.619,1.313,2.932,2.932,2.932h29.137c1.619,0,2.932-1.313,2.932-2.932V44.432
			z"/>
	</g>
	<g>
		<path d="M68.5,61.568c0,3.828-3.104,6.932-6.932,6.932h-5.137c-3.828,0-6.932-3.104-6.932-6.932V44.432
			c0-3.828,3.104-6.932,6.932-6.932h5.137c3.828,0,6.932,3.104,6.932,6.932V61.568z M64.5,44.432c0-1.619-1.313-2.932-2.932-2.932
			h-5.137c-1.619,0-2.932,1.313-2.932,2.932v17.137c0,1.619,1.313,2.932,2.932,2.932h5.137c1.619,0,2.932-1.313,2.932-2.932V44.432z
			"/>
	</g>
</g>
</svg>