<?xml version="1.0" encoding="utf-8"?><!-- Uploaded to: SVG Repo, www.svgrepo.com, Generator: SVG Repo Mixer Tools -->
<svg fill="#000000" width="800px" height="800px" viewBox="0 0 1024 1024" xmlns="http://www.w3.org/2000/svg"><path d="M525.947 25.857l204.881 354.855c14.279 24.725 5.804 56.348-18.923 70.628L439.241 608.761c-24.736 14.276-56.359 5.808-70.633-18.926L163.738 234.98c-14.279-24.725-5.804-56.348 18.923-70.628l75.489-43.581c9.794-5.654 22.316-2.3 27.973 7.492l12.108 20.958c13.023 22.563 41.868 30.295 64.399 17.289l4.537-2.629c22.563-13.023 30.295-41.868 17.273-64.427l-12.104-20.961c-5.656-9.796-2.3-22.322 7.496-27.978L455.32 6.934c24.725-14.278 56.347-5.803 70.626 18.923zM203.143 199.824c-5.138 2.967-6.899 9.54-3.934 14.675l204.873 354.86c2.965 5.139 9.536 6.898 14.682 3.928l272.658-157.418c5.138-2.967 6.899-9.54 3.934-14.674L490.475 46.34c-2.967-5.138-9.54-6.899-14.673-3.935l-57.754 33.342 1.863 3.227c24.332 42.154 9.885 96.049-32.239 120.363l-4.537 2.629c-42.154 24.332-96.049 9.885-120.377-32.263l-1.862-3.223-57.756 33.343z"/><path d="M224.61 341.424l-31.826 55.122c-2.967 5.141-9.534 6.9-14.672 3.933l-60.09-34.694c-5.146-2.97-6.907-9.539-3.943-14.672l83.273-144.222c5.656-9.795 2.3-22.321-7.495-27.976s-22.321-2.3-27.976 7.495L78.609 330.63c-14.28 24.727-5.799 56.353 18.937 70.628l60.085 34.691c24.727 14.28 56.352 5.81 70.628-18.927l31.824-55.118c5.656-9.795 2.3-22.321-7.496-27.976s-22.321-2.3-27.976 7.496zM587.533 172.85h63.652c28.555 0 51.702-23.147 51.702-51.702V51.762C702.887 23.207 679.74.06 651.185.06H484.662c-11.311 0-20.48 9.169-20.48 20.48s9.169 20.48 20.48 20.48h166.523c5.933 0 10.742 4.808 10.742 10.742v69.386c0 5.933-4.808 10.742-10.742 10.742h-63.652c-11.311 0-20.48 9.169-20.48 20.48s9.169 20.48 20.48 20.48zm281.129 587.658l39.209 213.238c.743 4.031-.917 6.024-5.017 6.024H438.275c-4.1 0-5.76-1.994-5.019-6.015l39.211-213.247-40.285-7.407-39.209 213.238c-5.381 29.188 15.61 54.392 45.302 54.392h464.579c29.692 0 50.683-25.203 45.3-54.401l-39.207-213.229-40.285 7.407z"/><path d="M868.324 689.804c0-11.309-9.171-20.48-20.48-20.48h-354.56c-11.309 0-20.48 9.171-20.48 20.48v46.52h395.52v-46.52zm-436.48 87.481v-87.48c0-33.931 27.509-61.44 61.44-61.44h354.56c33.931 0 61.44 27.509 61.44 61.44v87.48h-477.44z"/></svg>