<svg width="20" height="20" viewBox="0 0 20 20" fill="none" xmlns="http://www.w3.org/2000/svg">
<path d="M20 4.66667L8.66667 4.66667M8.66667 4.66667C8.66667 3.19391 7.47276 2 6 2C4.52724 2 3.33333 3.19391 3.33333 4.66667M8.66667 4.66667C8.66667 6.13943 7.47276 7.33333 6 7.33333C4.52724 7.33333 3.33333 6.13943 3.33333 4.66667M3.33333 4.66667L0 4.66667M20 15.3333L16.6667 15.3333M16.6667 15.3333C16.6667 13.8606 15.4728 12.6667 14 12.6667C12.5272 12.6667 11.3333 13.8606 11.3333 15.3333M16.6667 15.3333C16.6667 16.8061 15.4728 18 14 18C12.5272 18 11.3333 16.8061 11.3333 15.3333M11.3333 15.3333L1.69528e-07 15.3333" stroke="#0E1012" stroke-width="2"/>
</svg>
