<svg width="42" height="42" viewBox="0 0 42 42" fill="none" xmlns="http://www.w3.org/2000/svg">
<path d="M27.5257 23.108V32.3411C28.4064 32.6547 29.0412 33.487 29.0412 34.475C29.0412 35.7299 28.0227 36.7483 26.7678 36.7483C25.5132 36.7483 24.4947 35.7299 24.4947 34.475C24.4947 33.4867 25.1298 32.6548 26.0102 32.3411V23.108H24.4947C24.4947 24.7813 22.7988 26.1392 20.7058 26.1392C18.6126 26.139 16.9167 24.781 16.9167 23.108H15.4012V26.2163C17.1291 26.568 18.4325 28.0972 18.4325 29.9281V32.9593C18.4325 34.043 17.9565 35.0782 17.1275 35.8041C16.9834 35.9282 16.8061 35.9903 16.6287 35.9903C16.4181 35.9903 16.2073 35.9025 16.0589 35.7313C15.7831 35.4162 15.8163 34.9371 16.1317 34.6613C16.6303 34.2262 16.9167 33.6048 16.9167 32.9591V29.9278C16.9167 28.6747 15.8967 27.6547 14.6433 27.6547C13.3899 27.6547 12.37 28.6747 12.37 29.9281V32.9593C12.37 33.6051 12.6564 34.2264 13.1565 34.6613C13.4716 34.9371 13.5036 35.4161 13.2293 35.7313C12.9535 36.0464 12.4729 36.0769 12.1609 35.8041C11.3302 35.0779 10.8545 34.0428 10.8545 32.9591V29.9278C10.8545 28.0969 12.1578 26.5678 13.8857 26.2161L13.8855 23.1079C10.5376 23.1079 7.82324 25.8223 7.82324 29.1701V38.2636H33.5883V29.1701C33.5883 25.8223 30.8737 23.1079 27.5258 23.1079L27.5257 23.108Z" fill="#1C6BA4"/>
<path d="M18.0854 21.0665C18.8917 21.403 19.777 21.5922 20.7059 21.5922C21.635 21.5922 22.52 21.4027 23.3264 21.0663C25.7908 20.039 27.526 17.6093 27.526 14.7722V12.4988H13.8857V14.7722C13.8857 17.6093 15.6197 20.039 18.0854 21.0665V21.0665Z" fill="#1C6BA4"/>
<path d="M27.5257 6.29532C25.6434 4.36906 23.1746 3.40515 20.7056 3.40515C18.2369 3.40515 15.7694 4.36906 13.8855 6.29532V10.9831H27.5257V6.29532ZM22.979 7.95189H21.4635V9.46739H19.948V7.95189H18.4325L18.4322 6.4364H19.9477L19.948 4.92091H21.4635V6.4364H22.979V7.95189Z" fill="#1C6BA4"/>
</svg>
