<svg width="42" height="42" viewBox="0 0 42 42" fill="none" xmlns="http://www.w3.org/2000/svg">
<path d="M33.2248 21.2848C33.2575 21.2883 33.2902 21.2883 33.3226 21.2848C33.4771 21.6632 33.7988 21.9477 34.1929 22.0549C34.5872 22.1619 35.0089 22.0791 35.3333 21.8311C35.6578 21.583 35.8481 21.1978 35.8481 20.7893C35.8481 20.3809 35.6578 19.9957 35.3333 19.7476C35.0088 19.4995 34.5872 19.4168 34.1929 19.5238C33.7988 19.631 33.4771 19.9155 33.3226 20.2939C33.2902 20.2903 33.2575 20.2903 33.2248 20.2939H31.6237C31.5738 19.2733 31.3784 18.2655 31.0438 17.3002L32.5304 16.7103C32.5616 16.6987 32.591 16.6827 32.6181 16.6632C32.9012 16.9595 33.3061 17.1067 33.7134 17.0616C34.1206 17.0164 34.4837 16.7841 34.6951 16.433C34.9063 16.082 34.9418 15.6523 34.7911 15.2714C34.6403 14.8903 34.3205 14.6012 33.9262 14.4898C33.5321 14.3784 33.1081 14.4571 32.7803 14.7029C32.4523 14.9486 32.2579 15.3331 32.2541 15.7429C32.2216 15.7483 32.1899 15.7572 32.1596 15.7699L30.6798 16.3632C30.2292 15.3808 29.6339 14.4717 28.9134 13.6663L30.0595 12.5437C30.0794 12.5181 30.0973 12.4911 30.1133 12.4628C30.4874 12.6307 30.9182 12.6143 31.2782 12.4182C31.6383 12.2218 31.8856 11.8686 31.9472 11.4635C32.0088 11.0581 31.8771 10.6473 31.5917 10.3532C31.306 10.0592 30.8994 9.91555 30.4924 9.96493C30.0853 10.0146 29.7251 10.2513 29.5184 10.6055C29.3117 10.9594 29.2823 11.3897 29.4391 11.7685C29.4121 11.7887 29.3817 11.7988 29.3549 11.8224L28.2121 12.9449C27.4488 12.2343 26.5856 11.6392 25.65 11.1785L26.2906 9.71214C26.3038 9.6818 26.3139 9.65006 26.3209 9.61784C26.7291 9.62725 27.1185 9.44618 27.3744 9.1278C27.63 8.80964 27.7229 8.39014 27.6253 7.99368C27.5279 7.59723 27.2512 7.26872 26.877 7.10505C26.5029 6.94162 26.074 6.96161 25.7166 7.1596C25.3594 7.35736 25.1149 7.71031 25.0549 8.11403C24.9949 8.51801 25.1264 8.92694 25.4109 9.21992C25.393 9.2479 25.3773 9.27729 25.3637 9.30763L24.7231 10.774C23.6659 10.3747 22.5518 10.1471 21.4228 10.0998V8.48509C21.4264 8.4524 21.4264 8.41972 21.4228 8.38727C21.8009 8.23278 22.0857 7.91109 22.1927 7.51699C22.2999 7.12265 22.2171 6.70102 21.9691 6.37655C21.721 6.05205 21.3358 5.86182 20.9274 5.86182C20.5189 5.86182 20.1337 6.05205 19.8856 6.37655C19.6373 6.70105 19.5548 7.1227 19.6618 7.51699C19.7688 7.9111 20.0535 8.2328 20.4316 8.38727C20.4281 8.41972 20.4281 8.4524 20.4316 8.48509V10.0865V10.0862C19.3027 10.1337 18.1886 10.3613 17.1314 10.7604L16.4843 9.31774C16.4706 9.28741 16.4546 9.25802 16.437 9.23004C16.7239 8.9401 16.8591 8.53283 16.8026 8.1286C16.746 7.72463 16.5042 7.37024 16.1487 7.17014C15.7932 6.97004 15.3645 6.94746 14.9899 7.10877C14.6151 7.27008 14.3371 7.59717 14.2384 7.99295C14.1394 8.3887 14.2309 8.80796 14.4855 9.12659C14.7402 9.44545 15.1291 9.62698 15.5369 9.61781C15.544 9.65003 15.5543 9.68177 15.5672 9.7121L16.2113 11.1785C15.2839 11.6356 14.4277 12.2251 13.6693 12.9279L12.503 11.8055C12.476 11.782 12.4456 11.7719 12.4188 11.7517V11.7514C12.5757 11.3726 12.5463 10.9425 12.3396 10.5884C12.1329 10.2345 11.7724 9.99751 11.3656 9.94787C10.9585 9.89849 10.5517 10.0422 10.2663 10.3363C9.98079 10.6305 9.84911 11.0411 9.91072 11.4464C9.97209 11.8518 10.2197 12.205 10.5797 12.4011C10.9395 12.5972 11.3705 12.6139 11.7444 12.4458C11.7604 12.474 11.7785 12.501 11.7985 12.5267L12.9446 13.6492C12.2333 14.4452 11.6447 15.3428 11.1984 16.3125L9.71835 15.7225C9.68731 15.7086 9.65439 15.6995 9.62077 15.6955C9.61983 15.287 9.42842 14.9021 9.10297 14.6547C8.77777 14.4076 8.35592 14.326 7.96181 14.4341C7.56794 14.5425 7.24697 14.8282 7.09364 15.2071C6.94056 15.5859 6.97254 16.0143 7.18065 16.3661C7.38851 16.7179 7.74853 16.9526 8.1544 17.0008C8.56003 17.0492 8.9652 16.9055 9.24993 16.6126C9.27768 16.6309 9.30708 16.6467 9.33741 16.6596L10.8174 17.2531C10.4755 18.2303 10.2778 19.2526 10.231 20.2869H8.63646C8.60377 20.2834 8.57109 20.2834 8.53864 20.2869C8.38414 19.9088 8.06246 19.624 7.66836 19.5171C7.27402 19.4098 6.85238 19.4926 6.52792 19.7407C6.20342 19.9888 6.01318 20.374 6.01318 20.7824C6.01318 21.1908 6.20342 21.576 6.52792 21.8241C6.85242 22.0724 7.27407 22.155 7.66836 22.048C8.06247 21.941 8.38417 21.6562 8.53864 21.2781C8.57109 21.2816 8.60377 21.2816 8.63646 21.2781H10.2378H10.2376C10.2884 22.2939 10.4838 23.2973 10.8175 24.2581L9.33089 24.8514C9.29891 24.8625 9.26834 24.8773 9.23989 24.8951C8.9563 24.6012 8.55183 24.4561 8.14598 24.5029C7.74012 24.5495 7.37942 24.7827 7.16988 25.1334C6.96059 25.4842 6.92673 25.9124 7.07817 26.2919C7.2296 26.6712 7.54917 26.9583 7.94255 27.0683C8.33595 27.1784 8.75804 27.0989 9.08443 26.8532C9.41082 26.6077 9.60411 26.2239 9.60716 25.8155C9.64008 25.8117 9.67183 25.8026 9.70169 25.7885L11.1918 25.1985H11.1916C11.6417 26.1811 12.237 27.0902 12.958 27.8954L11.8119 29.0179C11.7919 29.0436 11.7741 29.0706 11.7581 29.0988C11.384 28.9309 10.9532 28.9474 10.5931 29.1438C10.2331 29.3399 9.98574 29.6931 9.92415 30.0984C9.86255 30.5036 9.99423 30.9144 10.2797 31.2085C10.5654 31.5027 10.972 31.6464 11.379 31.5968C11.7861 31.5474 12.1463 31.3103 12.353 30.9564C12.5597 30.6023 12.5891 30.172 12.4323 29.7932C12.4624 29.7786 12.4906 29.7605 12.5164 29.7393L13.6592 28.6168C14.4197 29.3255 15.2794 29.9195 16.2113 30.3799L15.5707 31.8495C15.5571 31.8799 15.547 31.9116 15.5404 31.9441C15.1329 31.9358 14.7449 32.1181 14.4912 32.4367C14.2372 32.7556 14.1464 33.1744 14.2454 33.5696C14.3444 33.9649 14.6219 34.2915 14.9963 34.4528C15.3704 34.6142 15.7983 34.5918 16.1539 34.3926C16.5092 34.1932 16.7514 33.8398 16.809 33.4363C16.8666 33.033 16.7328 32.6257 16.4471 32.3351C16.4659 32.3095 16.4829 32.2824 16.4977 32.2542L17.1382 30.7845V30.7843C18.1954 31.1836 19.3096 31.4112 20.4385 31.4585V33.0598C20.435 33.0923 20.435 33.1252 20.4385 33.1577C20.0604 33.3119 19.7756 33.6338 19.6686 34.0279C19.5614 34.422 19.6442 34.8437 19.8923 35.1681C20.1403 35.4926 20.5255 35.6831 20.934 35.6831C21.3424 35.6831 21.7276 35.4926 21.9757 35.1681C22.224 34.8436 22.3065 34.422 22.1995 34.0279C22.0926 33.6339 21.8078 33.3119 21.4297 33.1577C21.4332 33.1252 21.4332 33.0923 21.4297 33.0598V31.4721C22.5586 31.4246 23.6728 31.197 24.7299 30.798L25.3771 32.2406C25.3912 32.2705 25.4081 32.2987 25.4276 32.325C25.1372 32.6138 24.9983 33.0215 25.0521 33.4274C25.1059 33.8335 25.3463 34.1909 25.702 34.3941C26.0578 34.597 26.4879 34.6222 26.8648 34.462C27.2418 34.3019 27.5223 33.9748 27.623 33.5778C27.7238 33.1809 27.6335 32.7598 27.3786 32.439C27.1237 32.1185 26.7339 31.9353 26.3245 31.944C26.3179 31.9116 26.3078 31.8798 26.2941 31.8495L25.6501 30.3799C26.5775 29.9227 27.4337 29.3332 28.192 28.6304L29.3584 29.7528C29.3842 29.7739 29.4127 29.792 29.4425 29.8069C29.2857 30.1857 29.3151 30.6158 29.5218 30.9699C29.7285 31.3238 30.0889 31.5608 30.4958 31.6104C30.9028 31.6598 31.3096 31.5161 31.5951 31.222C31.8806 30.9278 32.0122 30.5172 31.9506 30.1119C31.8893 29.7065 31.6417 29.3533 31.2817 29.1572C30.9219 28.9611 30.4908 28.9444 30.117 29.1125C30.101 29.0843 30.0829 29.0573 30.0629 29.0316L28.9168 27.9091C29.6269 27.1143 30.2143 26.2176 30.6597 25.2493L32.143 25.8358C32.174 25.8496 32.207 25.8588 32.2406 25.8628C32.2415 26.2713 32.4329 26.6562 32.7584 26.9036C33.0836 27.1507 33.5054 27.2323 33.8995 27.1241C34.2934 27.0157 34.6144 26.73 34.7677 26.3512C34.9208 25.9724 34.8888 25.5439 34.6807 25.1922C34.4728 24.8404 34.1128 24.6057 33.707 24.5575C33.3013 24.509 32.8962 24.6527 32.6114 24.9457C32.5837 24.9274 32.5543 24.9116 32.5239 24.8987L31.0439 24.3087C31.3854 23.331 31.5829 22.309 31.6304 21.2746L33.2248 21.2848ZM24.3728 13.4808C24.9611 13.4808 25.5252 13.7143 25.9412 14.1303C26.3572 14.5463 26.5909 15.1106 26.5909 15.699C26.5909 16.2871 26.3572 16.8514 25.9412 17.2674C25.5252 17.6834 24.9611 17.9171 24.3728 17.9171C23.7844 17.9171 23.2203 17.6834 22.8043 17.2674C22.3883 16.8514 22.1546 16.2871 22.1546 15.699C22.1537 15.1104 22.3872 14.5456 22.8033 14.1294C23.2196 13.7132 23.7841 13.4799 24.3727 13.4809L24.3728 13.4808ZM21.096 23.1624C20.5079 23.1624 19.9435 22.9286 19.5275 22.5127C19.1115 22.0967 18.8778 21.5323 18.8778 20.944C18.8778 20.3559 19.1115 19.7915 19.5275 19.3755C19.9435 18.9596 20.5078 18.7258 21.096 18.7258C21.6843 18.7258 22.2486 18.9596 22.6646 19.3755C23.0806 19.7915 23.3144 20.3558 23.3144 20.944C23.3144 21.5323 23.0806 22.0966 22.6646 22.5127C22.2487 22.9286 21.6843 23.1624 21.096 23.1624ZM17.8162 13.4808C18.4043 13.4808 18.9686 13.7143 19.3846 14.1303C19.8006 14.5463 20.0343 15.1106 20.0343 15.699C20.0343 16.2871 19.8006 16.8514 19.3846 17.2674C18.9686 17.6834 18.4043 17.9171 17.8162 17.9171C17.2278 17.9171 16.6635 17.6834 16.2475 17.2674C15.8315 16.8514 15.5978 16.2871 15.5978 15.699C15.5978 15.1106 15.8315 14.5463 16.2475 14.1303C16.6635 13.7143 17.2278 13.4808 17.8162 13.4808ZM12.3213 20.9441C12.3213 20.355 12.5555 19.7902 12.9726 19.3743C13.3895 18.9581 13.9548 18.7248 14.5439 18.7262C15.1329 18.7274 15.6973 18.9627 16.1126 19.3806C16.5278 19.7984 16.7599 20.3642 16.7576 20.9532C16.7552 21.5423 16.5187 22.1061 16.0999 22.5207C15.6813 22.935 15.1151 23.166 14.526 23.1624C13.9398 23.1596 13.3785 22.9247 12.9651 22.509C12.5519 22.093 12.3203 21.5305 12.3213 20.9441ZM17.8162 28.0775C17.2278 28.0775 16.6635 27.844 16.2475 27.428C15.8315 27.012 15.5978 26.4477 15.5978 25.8593C15.5978 25.2712 15.8315 24.7069 16.2475 24.2909C16.6635 23.8749 17.2278 23.6412 17.8162 23.6412C18.4043 23.6412 18.9686 23.8749 19.3846 24.2909C19.8006 24.7069 20.0343 25.2712 20.0343 25.8593C20.0343 26.4477 19.8006 27.012 19.3846 27.428C18.9686 27.844 18.4043 28.0775 17.8162 28.0775ZM24.3729 28.0775H24.3726C23.7843 28.0775 23.2202 27.844 22.8042 27.428C22.3882 27.012 22.1545 26.4477 22.1545 25.8593C22.1545 25.2712 22.3882 24.7069 22.8042 24.2909C23.2202 23.8749 23.7843 23.6412 24.3726 23.6412C24.961 23.6412 25.5251 23.8749 25.9411 24.2909C26.3571 24.7069 26.5908 25.2712 26.5908 25.8593C26.5908 26.4477 26.3571 27.012 25.9411 27.428C25.5251 27.844 24.961 28.0775 24.3726 28.0775H24.3729ZM27.3357 23.1627C26.7476 23.1627 26.1833 22.9289 25.7673 22.513C25.3513 22.097 25.1176 21.5326 25.1176 20.9443C25.1176 20.3562 25.3513 19.7918 25.7673 19.3758C26.1833 18.9599 26.7476 18.7261 27.3357 18.7261C27.9241 18.7261 28.4884 18.9599 28.9044 19.3758C29.3204 19.7918 29.5539 20.3561 29.5539 20.9443C29.5539 21.5326 29.3204 22.0969 28.9044 22.513C28.4884 22.9289 27.9241 23.1627 27.3357 23.1627Z" fill="#9D4C6C"/>
</svg>
