<svg width="42" height="42" viewBox="0 0 42 42" fill="none" xmlns="http://www.w3.org/2000/svg">
<path d="M22.718 20.0906C24.3537 18.6285 26.5237 17.7475 28.9008 17.7475C30.3372 17.7475 31.6735 18.0869 32.8689 18.6289L34.3892 17.2459C36.3894 15.1366 36.0754 11.3811 33.576 8.69795C31.0915 5.98247 27.3587 5.38347 25.0904 7.24599L16.5037 15.1869C17.7895 15.6812 19.0207 16.3637 20.1148 17.3279C21.4546 18.3858 22.2998 19.5237 22.7181 20.0902L22.718 20.0906Z" fill="#E09F1F"/>
<path d="M21.8088 20.9904C21.5159 20.568 20.6425 19.3867 19.3133 18.2568C18.1073 17.2455 16.8294 16.5456 15.5185 16.1368L6.73275 24.258C4.52283 26.3057 4.77198 30.2307 7.38968 32.9897C9.93186 35.7449 13.8029 36.3227 16.002 34.2676L20.0538 30.5052C19.6962 29.4837 19.4796 28.378 19.4796 27.23C19.4794 24.8325 20.3427 22.6297 21.8092 20.9902L21.8088 20.9904Z" fill="#E09F1F"/>
<path d="M36.8302 24.8101L21.4836 30.8912C23.3541 34.6973 27.8858 36.5067 31.9552 34.9185C35.9853 33.2998 38.0756 28.9023 36.8301 24.8103L36.8302 24.8101Z" fill="#E09F1F"/>
<path d="M25.8704 19.4983C21.8266 21.084 19.7139 25.5077 20.9604 29.5912L36.3175 23.5101C34.4352 19.7008 29.9043 17.8988 25.8704 19.4982V19.4983Z" fill="#E09F1F"/>
</svg>
